<svg version="1" xmlns="http://www.w3.org/2000/svg" width="933.333" height="933.333" viewBox="0 0 700.000000 700.000000"><path d="M324.6 5.1C278.4 8.7 236.5 20.3 195.5 41c-37.1 18.6-62.6 37.2-91.3 66.3-26.7 27-46.2 53.9-62.7 86.7-25.3 50.4-36.8 98.9-36.9 155.5 0 24.5.9 36.7 4.5 58 19.7 117.5 99.3 217 210 262.5 28.7 11.8 59.5 19.7 91.9 23.6 19.9 2.4 58.1 2.4 78 0 100-12.1 186.6-63.8 244.7-146.1 28.6-40.6 48.9-90.3 57.2-140 3.6-21.5 4.4-32.6 4.4-57.5s-.8-36.1-4.4-57.5c-9.9-59.3-35.4-115.3-74-162.2-9.6-11.7-31.3-33.9-42.4-43.3-52.7-44.7-116.7-72.6-185-80.5-16.4-1.9-49.4-2.6-64.9-1.4zm185.7 190.3l37.6 29-9.3 13.5c-5.2 7.5-52.4 76.8-105.1 154.1-52.6 77.3-96 140.9-96.5 141.4-.4.4-42.2-31.5-92.9-70.9l-92-71.8 2.3-3.1c1.3-1.7 13.3-18.6 26.6-37.6s24.6-34.9 25-35.3c.4-.5 25.2 17.7 55 40.3 29.8 22.6 54.4 40.9 54.5 40.8.1-.2 35.2-52 77.9-115.1 42.8-63.1 78.2-114.7 78.6-114.5.4.2 17.7 13.3 38.3 29.2z"/></svg>